# Blender 4.5.0
# www.blender.org
mtllib again_pine.mtl
o 柱体
v 0.000000 -1.000000 -2.129526
v 0.000000 4.781860 -0.048890
v 1.064763 -1.282874 -1.844224
v 0.024445 4.781860 -0.042340
v 1.844224 -1.000000 -1.064763
v 0.042340 4.781860 -0.024445
v 2.129526 -1.282874 0.000000
v 0.048890 4.781860 -0.000000
v 1.844224 -1.000000 1.064763
v 0.042340 4.781860 0.024445
v 1.156348 -1.508366 1.826966
v 0.024445 4.781860 0.042340
v 0.000000 -1.000000 2.129526
v 0.000000 4.781860 0.048890
v -1.041107 -1.148353 2.052331
v -0.024445 4.781860 0.042340
v -1.844224 -1.000000 1.064763
v -0.042340 4.781860 0.024445
v -2.090941 -1.506582 0.046598
v -0.048890 4.781860 -0.000000
v -1.844224 -1.000000 -1.064763
v -0.042340 4.781860 -0.024445
v -1.157130 -1.228229 -1.888513
v -0.024445 4.781860 -0.042340
v 0.000000 0.445465 -0.770219
v 0.000000 1.890930 -0.540439
v 0.000000 3.336395 -0.310658
v 0.155329 3.336395 -0.269038
v 0.270219 1.890930 -0.468034
v 0.385110 0.445465 -0.667030
v 0.269038 3.336395 -0.155329
v 0.468034 1.890930 -0.270219
v 0.667030 0.445465 -0.385110
v 0.310658 3.336395 -0.000000
v 0.540439 1.890930 -0.000000
v 0.770219 0.445465 -0.000000
v 0.269038 3.336395 0.155329
v 0.468034 1.890930 0.270219
v 0.667030 0.445465 0.385110
v 0.155329 3.336395 0.269038
v 0.270219 1.890930 0.468034
v 0.385110 0.445465 0.667030
v 0.000000 3.336395 0.310658
v 0.000000 1.890930 0.540439
v 0.000000 0.445465 0.770219
v -0.155329 3.336395 0.269038
v -0.270219 1.890930 0.468034
v -0.385110 0.445465 0.667030
v -0.269038 3.336395 0.155329
v -0.468034 1.890930 0.270219
v -0.667030 0.445465 0.385110
v -0.310658 3.336395 -0.000000
v -0.540439 1.890930 -0.000000
v -0.770219 0.445465 -0.000000
v -0.269038 3.336395 -0.155329
v -0.468034 1.890930 -0.270219
v -0.667030 0.445465 -0.385110
v -0.155329 3.336395 -0.269038
v -0.270219 1.890930 -0.468034
v -0.385110 0.445465 -0.667030
v 0.000000 3.383768 -0.721810
v 0.360905 3.100894 -0.625106
v 0.625106 3.383768 -0.360905
v 0.721810 3.100894 -0.000000
v 0.625106 3.383768 0.360905
v 0.360905 3.100894 0.625106
v 0.000000 3.383768 0.721810
v -0.337249 3.235415 0.833213
v -0.625106 3.383768 0.360905
v -0.721810 3.100894 -0.000000
v -0.625106 3.383768 -0.360905
v -0.360905 3.100894 -0.625106
v 0.000000 1.952577 -1.039665
v 0.519833 1.669703 -0.900376
v 0.900376 1.952577 -0.519833
v 1.039665 1.669703 -0.000000
v 0.900376 1.952577 0.519833
v 0.519833 1.669703 0.900376
v 0.000000 1.952577 1.039665
v -0.496176 1.804224 1.108483
v -0.900376 1.952577 0.519833
v -1.039665 1.669703 -0.000000
v -0.900376 1.952577 -0.519833
v -0.519833 1.669703 -0.900376
v 0.000000 0.538995 -1.519156
v 0.759578 0.256121 -1.315627
v 1.315627 0.538995 -0.759578
v 1.519156 0.256121 -0.000000
v 1.315627 0.538995 0.759578
v 0.759578 0.256121 1.315627
v 0.000000 0.538995 1.519156
v -0.735922 0.390642 1.523734
v -1.315627 0.538995 0.759578
v -1.519156 0.256121 -0.000000
v -1.315627 0.538995 -0.759578
v -0.759578 0.256121 -1.315627
v 0.242893 -1.840658 -0.242893
v 0.000000 -1.840659 -0.343503
v 0.000000 -3.111653 -0.485692
v 0.000000 -0.569664 -0.485692
v 0.343436 -3.111653 -0.343436
v 0.343436 -0.569664 -0.343436
v 0.485692 -3.111653 0.000000
v 0.485692 -0.569664 0.000000
v 0.343436 -3.111653 0.343436
v 0.343436 -0.569664 0.343436
v 0.000000 -3.111653 0.485692
v 0.000000 -0.569664 0.485692
v -0.343436 -3.111653 0.343436
v -0.343436 -0.569664 0.343436
v -0.485692 -3.111653 0.000000
v -0.485692 -0.569664 0.000000
v -0.343436 -3.111653 -0.343436
v -0.343436 -0.569664 -0.343436
v 0.343503 -1.840658 0.000000
v 0.242893 -1.840658 0.242893
v 0.000000 -1.840658 0.343503
v -0.242893 -1.840658 0.242893
v -0.343503 -1.840658 0.000000
v -0.242893 -1.840658 -0.242893
vn 0.9190 0.1028 -0.3807
vn 0.3807 -0.1028 -0.9190
vn 0.9190 0.1028 0.3807
vn 0.9190 -0.1028 -0.3807
vn 0.3807 0.1028 0.9190
vn 0.9190 -0.1028 0.3807
vn -0.3807 0.1028 0.9190
vn 0.3807 -0.1028 0.9190
vn -0.9190 0.1028 0.3807
vn -0.3807 -0.1028 0.9190
vn -0.9190 0.1028 -0.3807
vn -0.9190 -0.1028 0.3807
vn -0.3807 0.1028 -0.9190
vn -0.9190 -0.1028 -0.3807
vn 0.3807 0.1028 -0.9190
vn -0.3807 -0.1028 -0.9190
vn -0.0000 -1.0000 -0.0000
vn 0.4867 0.3750 -0.7890
vn 0.4400 0.3750 -0.8160
vn 0.9267 0.3750 0.0270
vn 0.9267 0.3750 -0.0270
vn 0.4400 0.3750 0.8160
vn 0.4867 0.3750 0.7890
vn 0.0806 0.4368 0.8959
vn -0.7014 0.4307 0.5679
vn -0.9267 0.3750 -0.0270
vn -0.9267 0.3750 0.0270
vn -0.0000 1.0000 -0.0000
vn -0.4400 0.3750 -0.8160
vn -0.4867 0.3750 -0.7890
vn 0.0013 -1.0000 -0.0097
vn -0.2557 0.6531 -0.7128
vn -0.3522 0.5296 -0.7717
vn -0.3932 0.4133 -0.8213
vn -0.4950 0.6564 -0.5693
vn -0.4922 0.5296 -0.6909
vn -0.5147 0.4133 -0.7512
vn -0.8066 0.5909 0.0114
vn -0.8444 0.5296 -0.0808
vn -0.9079 0.4133 -0.0701
vn -0.8068 0.5906 -0.0120
vn -0.8444 0.5296 0.0808
vn -0.9079 0.4133 0.0701
vn -0.5224 0.6718 0.5250
vn -0.5891 0.5774 0.5652
vn -0.6635 0.4636 0.5872
vn -0.1612 0.6804 0.7149
vn -0.1406 0.5900 0.7950
vn -0.0726 0.4790 0.8748
vn 0.3832 0.6045 0.6984
vn 0.3522 0.5296 0.7717
vn 0.3932 0.4133 0.8213
vn 0.4144 0.6053 0.6796
vn 0.4922 0.5296 0.6909
vn 0.5147 0.4133 0.7512
vn 0.7698 0.6329 0.0828
vn 0.8444 0.5296 0.0808
vn 0.9079 0.4133 0.0701
vn 0.7698 0.6329 -0.0828
vn 0.8444 0.5296 -0.0808
vn 0.9079 0.4133 -0.0701
vn 0.4566 0.6329 -0.6253
vn 0.4922 0.5296 -0.6909
vn 0.5147 0.4133 -0.7512
vn 0.3132 0.6329 -0.7080
vn 0.3522 0.5296 -0.7717
vn 0.3932 0.4133 -0.8213
vn 0.4953 -0.8651 0.0794
vn -0.1789 -0.8651 0.4687
vn 0.3164 -0.8651 -0.3892
vn 0.3164 -0.8651 0.3892
vn -0.1298 -0.9787 -0.1589
vn 0.2885 -0.9575 0.0012
vn -0.4953 -0.8651 -0.0794
vn 0.1789 -0.8651 -0.4687
vn -0.3164 -0.8651 0.3892
vn -0.3164 -0.8651 -0.3892
vn 0.1789 -0.8651 0.4687
vn -0.4953 -0.8651 0.0794
vn -0.3519 -0.9337 0.0657
vn 0.1191 -0.9337 0.3376
vn -0.2328 -0.9337 -0.2719
vn -0.2328 -0.9337 0.2719
vn 0.1191 -0.9337 -0.3376
vn -0.3519 -0.9337 -0.0657
vn 0.1899 -0.9817 0.0161
vn -0.1054 -0.9888 -0.1058
vn 0.2328 -0.9337 0.2719
vn 0.2328 -0.9337 -0.2719
vn -0.1191 -0.9337 0.3376
vn 0.3519 -0.9337 0.0657
vn -0.2404 -0.9707 0.0021
vn 0.1184 -0.9707 0.2093
vn -0.1221 -0.9707 -0.2072
vn -0.1221 -0.9707 0.2072
vn 0.1184 -0.9707 -0.2093
vn -0.2404 -0.9707 -0.0021
vn 0.1266 -0.9906 0.0515
vn -0.1052 -0.9930 -0.0542
vn 0.1221 -0.9707 0.2072
vn 0.1221 -0.9707 -0.2072
vn -0.1184 -0.9707 0.2093
vn 0.2404 -0.9707 0.0021
vt 0.875000 0.500000
vt 0.875000 0.750000
vt 0.750000 0.750000
vt 0.750000 0.500000
vt 0.981703 0.750000
vt 1.000000 1.000000
vt 0.875000 1.000000
vt 0.625000 0.750000
vt 0.625000 0.500000
vt 0.750000 1.000000
vt 0.500000 0.750000
vt 0.500000 0.500000
vt 0.625000 1.000000
vt 0.375000 0.750000
vt 0.375000 0.500000
vt 0.500000 1.000000
vt 0.250000 0.750000
vt 0.250000 0.500000
vt 0.375000 1.000000
vt 0.125000 0.750000
vt 0.125000 0.500000
vt 0.250000 1.000000
vt 0.018297 0.750000
vt 0.000000 0.500000
vt 0.125000 1.000000
vt 1.000000 0.500000
vt 0.000000 1.000000
vt 0.750000 0.490000
vt 0.919706 0.419706
vt 0.990000 0.250000
vt 0.919706 0.080294
vt 0.750000 0.010000
vt 0.580294 0.080294
vt 0.510000 0.250000
vt 0.580294 0.419706
vt 1.000000 0.879097
vt 0.916667 1.000000
vt 0.916667 0.879097
vt 0.833333 1.000000
vt 0.833333 0.879097
vt 0.750000 0.879097
vt 0.666667 1.000000
vt 0.666667 0.879097
vt 0.583333 1.000000
vt 0.583333 0.879097
vt 0.500000 0.879097
vt 0.416667 1.000000
vt 0.416667 0.879097
vt 0.333333 1.000000
vt 0.333333 0.879097
vt 0.250000 0.879097
vt 0.166667 1.000000
vt 0.166667 0.879097
vt 0.370000 0.457846
vt 0.250000 0.490000
vt 0.130000 0.457846
vt 0.042154 0.370000
vt 0.010000 0.250000
vt 0.042154 0.130000
vt 0.130000 0.042154
vt 0.250000 0.010000
vt 0.370000 0.042154
vt 0.457846 0.130000
vt 0.490000 0.250000
vt 0.457846 0.370000
vt 0.083333 1.000000
vt 0.083333 0.879097
vt 0.000000 0.879097
vt 0.870000 0.457846
vt 0.957846 0.370000
vt 0.957846 0.130000
vt 0.870000 0.042154
vt 0.630000 0.042154
vt 0.542154 0.130000
vt 0.542154 0.370000
vt 0.630000 0.457846
vt 0.083333 0.500000
vt 0.083333 0.625000
vt 0.000000 0.625000
vt 0.083333 0.633088
vt 0.083333 0.750000
vt 0.000000 0.750000
vt 0.000000 0.633088
vt 0.083333 0.755331
vt 0.083333 0.875000
vt 0.000000 0.875000
vt 0.000000 0.755331
vt 0.166667 0.500000
vt 0.166667 0.625000
vt 0.166667 0.633088
vt 0.166667 0.750000
vt 0.166667 0.755331
vt 0.166667 0.875000
vt 0.250000 0.625000
vt 0.250000 0.633088
vt 0.250000 0.755331
vt 0.250000 0.875000
vt 0.333333 0.500000
vt 0.333333 0.625000
vt 0.333333 0.633088
vt 0.333333 0.750000
vt 0.333333 0.755331
vt 0.333333 0.875000
vt 0.416667 0.500000
vt 0.416667 0.625000
vt 0.416667 0.633088
vt 0.416667 0.750000
vt 0.416667 0.755331
vt 0.416667 0.875000
vt 0.500000 0.625000
vt 0.500000 0.633088
vt 0.500000 0.755331
vt 0.500000 0.875000
vt 0.583333 0.500000
vt 0.583333 0.625000
vt 0.583333 0.633088
vt 0.583333 0.750000
vt 0.583333 0.755331
vt 0.583333 0.875000
vt 0.666667 0.500000
vt 0.666667 0.625000
vt 0.666667 0.633088
vt 0.666667 0.750000
vt 0.666667 0.755331
vt 0.666667 0.875000
vt 0.750000 0.625000
vt 0.750000 0.633088
vt 0.750000 0.755331
vt 0.750000 0.875000
vt 0.833333 0.500000
vt 0.833333 0.625000
vt 0.833333 0.633088
vt 0.833333 0.750000
vt 0.833333 0.755331
vt 0.833333 0.875000
vt 0.916667 0.500000
vt 0.916667 0.625000
vt 0.916667 0.633088
vt 0.916667 0.750000
vt 0.916667 0.755331
vt 0.916667 0.875000
vt 1.000000 0.625000
vt 1.000000 0.633088
vt 1.000000 0.750000
vt 1.000000 0.755331
vt 1.000000 0.875000
vt 0.419706 0.419706
vt 0.080294 0.419706
vt 0.080294 0.080294
vt 0.419706 0.080294
s 1
usemtl 材质
f 101/1/1 97/2/1 115/3/1 103/4/1
f 98/5/2 100/6/2 102/7/2 97/2/2
f 103/4/3 115/3/3 116/8/3 105/9/3
f 97/2/4 102/7/4 104/10/4 115/3/4
f 105/9/5 116/8/5 117/11/5 107/12/5
f 115/3/6 104/10/6 106/13/6 116/8/6
f 107/12/7 117/11/7 118/14/7 109/15/7
f 116/8/8 106/13/8 108/16/8 117/11/8
f 109/15/9 118/14/9 119/17/9 111/18/9
f 117/11/10 108/16/10 110/19/10 118/14/10
f 111/18/11 119/17/11 120/20/11 113/21/11
f 118/14/12 110/19/12 112/22/12 119/17/12
f 113/21/13 120/20/13 98/23/13 99/24/13
f 119/17/14 112/22/14 114/25/14 120/20/14
f 99/26/15 98/5/15 97/2/15 101/1/15
f 120/20/16 114/25/16 100/27/16 98/23/16
f 99/28/17 101/29/17 103/30/17 105/31/17 107/32/17 109/33/17 111/34/17 113/35/17
usemtl 材质.001
f 61/36/18 2/6/18 4/37/18 62/38/18
f 62/38/19 4/37/19 6/39/19 63/40/19
f 63/40/20 6/39/20 8/10/20 64/41/20
f 64/41/21 8/10/21 10/42/21 65/43/21
f 65/43/22 10/42/22 12/44/22 66/45/22
f 66/45/23 12/44/23 14/16/23 67/46/23
f 67/46/24 14/16/24 16/47/24 68/48/24
f 68/48/25 16/47/25 18/49/25 69/50/25
f 69/50/26 18/49/26 20/22/26 70/51/26
f 70/51/27 20/22/27 22/52/27 71/53/27
f 4/54/28 2/55/28 24/56/28 22/57/28 20/58/28 18/59/28 16/60/28 14/61/28 12/62/28 10/63/28 8/64/28 6/65/28
f 71/53/29 22/52/29 24/66/29 72/67/29
f 72/67/30 24/66/30 2/27/30 61/68/30
f 1/28/31 3/69/31 5/70/31 7/30/31 9/71/31 11/72/31 13/32/31 15/73/31 17/74/31 19/34/31 21/75/31 23/76/31
f 23/77/32 60/78/32 25/79/32 1/24/32
f 96/80/33 59/81/33 26/82/33 85/83/33
f 84/84/34 58/85/34 27/86/34 73/87/34
f 21/88/35 57/89/35 60/78/35 23/77/35
f 95/90/36 56/91/36 59/81/36 96/80/36
f 83/92/37 55/93/37 58/85/37 84/84/37
f 19/18/38 54/94/38 57/89/38 21/88/38
f 94/95/39 53/17/39 56/91/39 95/90/39
f 82/96/40 52/97/40 55/93/40 83/92/40
f 17/98/41 51/99/41 54/94/41 19/18/41
f 93/100/42 50/101/42 53/17/42 94/95/42
f 81/102/43 49/103/43 52/97/43 82/96/43
f 15/104/44 48/105/44 51/99/44 17/98/44
f 92/106/45 47/107/45 50/101/45 93/100/45
f 80/108/46 46/109/46 49/103/46 81/102/46
f 13/12/47 45/110/47 48/105/47 15/104/47
f 91/111/48 44/11/48 47/107/48 92/106/48
f 79/112/49 43/113/49 46/109/49 80/108/49
f 11/114/50 42/115/50 45/110/50 13/12/50
f 90/116/51 41/117/51 44/11/51 91/111/51
f 78/118/52 40/119/52 43/113/52 79/112/52
f 9/120/53 39/121/53 42/115/53 11/114/53
f 89/122/54 38/123/54 41/117/54 90/116/54
f 77/124/55 37/125/55 40/119/55 78/118/55
f 7/4/56 36/126/56 39/121/56 9/120/56
f 88/127/57 35/3/57 38/123/57 89/122/57
f 76/128/58 34/129/58 37/125/58 77/124/58
f 5/130/59 33/131/59 36/126/59 7/4/59
f 87/132/60 32/133/60 35/3/60 88/127/60
f 75/134/61 31/135/61 34/129/61 76/128/61
f 3/136/62 30/137/62 33/131/62 5/130/62
f 86/138/63 29/139/63 32/133/63 87/132/63
f 74/140/64 28/141/64 31/135/64 75/134/64
f 1/26/65 25/142/65 30/137/65 3/136/65
f 85/143/66 26/144/66 29/139/66 86/138/66
f 73/145/67 27/146/67 28/141/67 74/140/67
f 58/85/68 72/67/68 61/68/68 27/86/68
f 55/93/69 71/53/69 72/67/69 58/85/69
f 52/97/70 70/51/70 71/53/70 55/93/70
f 49/103/71 69/50/71 70/51/71 52/97/71
f 46/109/72 68/48/72 69/50/72 49/103/72
f 43/113/73 67/46/73 68/48/73 46/109/73
f 40/119/74 66/45/74 67/46/74 43/113/74
f 37/125/75 65/43/75 66/45/75 40/119/75
f 34/129/76 64/41/76 65/43/76 37/125/76
f 31/135/77 63/40/77 64/41/77 34/129/77
f 28/141/78 62/38/78 63/40/78 31/135/78
f 27/146/79 61/36/79 62/38/79 28/141/79
f 26/144/80 73/145/80 74/140/80 29/139/80
f 29/139/81 74/140/81 75/134/81 32/133/81
f 32/133/82 75/134/82 76/128/82 35/3/82
f 35/3/83 76/128/83 77/124/83 38/123/83
f 38/123/84 77/124/84 78/118/84 41/117/84
f 41/117/85 78/118/85 79/112/85 44/11/85
f 44/11/86 79/112/86 80/108/86 47/107/86
f 47/107/87 80/108/87 81/102/87 50/101/87
f 50/101/88 81/102/88 82/96/88 53/17/88
f 53/17/89 82/96/89 83/92/89 56/91/89
f 56/91/90 83/92/90 84/84/90 59/81/90
f 59/81/91 84/84/91 73/87/91 26/82/91
f 25/142/92 85/143/92 86/138/92 30/137/92
f 30/137/93 86/138/93 87/132/93 33/131/93
f 33/131/94 87/132/94 88/127/94 36/126/94
f 36/126/95 88/127/95 89/122/95 39/121/95
f 39/121/96 89/122/96 90/116/96 42/115/96
f 42/115/97 90/116/97 91/111/97 45/110/97
f 45/110/98 91/111/98 92/106/98 48/105/98
f 48/105/99 92/106/99 93/100/99 51/99/99
f 51/99/100 93/100/100 94/95/100 54/94/100
f 54/94/101 94/95/101 95/90/101 57/89/101
f 57/89/102 95/90/102 96/80/102 60/78/102
f 60/78/103 96/80/103 85/83/103 25/79/103
f 102/147/28 100/55/28 114/148/28 112/58/28 110/149/28 108/61/28 106/150/28 104/64/28
